<svg width="1920" height="1080" viewBox="0 0 1920 1080" fill="none" xmlns="http://www.w3.org/2000/svg">
<g clip-path="url(#clip0_52_26)">
<rect width="1920" height="1080" fill="url(#paint0_linear_52_26)"/>
<path d="M167.172 241.012L186.639 248.153L157.164 332.766L137.696 325.625L167.172 241.012ZM99.4818 311.608L80.0141 304.467L109.49 219.854L128.957 226.995L99.4818 311.608ZM151.223 291.463L110.125 276.388L115.893 259.828L156.992 274.903L151.223 291.463Z" fill="white" fill-opacity="0.65"/>
<path d="M187.303 358.327C181.682 353.878 176.848 348.855 172.8 343.258C168.801 337.591 166.133 332.271 164.793 327.296L179.491 319.031C180.897 323.624 183.114 328.261 186.142 332.941C189.287 337.606 192.968 341.607 197.183 344.943C200.394 347.486 203.196 349.214 205.587 350.129C208.096 351.027 210.245 351.261 212.034 350.828C213.824 350.396 215.27 349.421 216.373 347.902C217.778 345.969 218.145 343.867 217.476 341.597C216.856 339.258 215.593 336.79 213.686 334.193C211.829 331.527 209.654 328.718 207.162 325.766C204.786 322.798 202.478 319.666 200.236 316.369C198.061 313.125 196.321 309.79 195.016 306.365C193.71 302.939 193.191 299.374 193.458 295.671C193.791 292.02 195.362 288.262 198.171 284.395C201.18 280.253 204.984 277.338 209.582 275.65C214.298 273.945 219.557 273.814 225.36 275.254C231.281 276.679 237.553 280.013 244.177 285.256C248.593 288.752 252.54 292.747 256.02 297.241C259.55 301.667 262.176 306.247 263.9 310.983L249.629 319.748C247.755 315.22 245.504 311.209 242.878 307.716C240.302 304.154 237.441 301.129 234.297 298.64C231.152 296.15 228.3 294.491 225.741 293.661C223.183 292.832 221.017 292.694 219.244 293.248C217.522 293.733 216.084 294.77 214.93 296.358C213.576 298.222 213.209 300.323 213.828 302.662C214.498 304.932 215.786 307.366 217.693 309.963C219.6 312.56 221.742 315.342 224.117 318.31C226.56 321.331 228.893 324.429 231.118 327.604C233.41 330.832 235.209 334.159 236.514 337.585C237.819 341.01 238.305 344.548 237.972 348.199C237.705 351.903 236.192 355.653 233.434 359.45C230.475 363.523 226.663 366.378 221.998 368.013C217.332 369.648 212.039 369.753 206.119 368.329C200.265 366.957 193.993 363.623 187.303 358.327Z" fill="white" fill-opacity="0.65"/>
<path d="M275.562 368.705L300.562 403.858L287.915 413.867L262.915 378.713L275.562 368.705ZM247.545 392.833L275.808 432.576L262.76 442.902L222.553 386.365L292.814 330.763L332.057 385.944L319.008 396.27L291.709 357.884L247.545 392.833Z" fill="white" fill-opacity="0.65"/>
<path d="M332.998 496.352L341.716 538.467L325.558 542.444L316.841 500.329L332.998 496.352ZM285.458 509.632L281.254 489.327L368.259 467.916L381.984 534.222L365.826 538.199L356.304 492.198L285.458 509.632Z" fill="white" fill-opacity="0.65"/>
<path d="M291.664 606.314C292.326 599.262 294.087 592.817 296.949 586.978C299.803 581.225 303.521 576.315 308.102 572.248C312.675 568.266 317.883 565.28 323.727 563.289C329.562 561.383 335.796 560.71 342.428 561.269C349.061 561.828 355.072 563.534 360.46 566.386C365.841 569.323 370.408 573.176 374.16 577.945C377.912 582.714 380.657 588.169 382.394 594.31C384.132 600.45 384.674 607.004 384.02 613.971C383.358 621.022 381.605 627.383 378.759 633.051C375.905 638.805 372.191 643.673 367.618 647.654C363.037 651.721 357.824 654.75 351.981 656.741C346.223 658.739 339.985 659.454 333.267 658.888C326.635 658.329 320.586 656.577 315.12 653.633C309.739 650.696 305.173 646.843 301.421 642.074C297.746 637.397 295.039 631.988 293.302 625.848C291.556 619.792 291.01 613.281 291.664 606.314ZM309.277 607.67C308.903 611.663 309.24 615.374 310.29 618.802C311.331 622.315 313.008 625.454 315.32 628.217C317.631 630.981 320.467 633.19 323.825 634.843C327.176 636.581 330.977 637.63 335.229 637.988C339.48 638.346 343.417 637.95 347.039 636.8C350.653 635.734 353.855 634.035 356.645 631.701C359.427 629.452 361.658 626.686 363.337 623.402C365.017 620.119 366.044 616.48 366.419 612.487C366.793 608.494 366.46 604.741 365.418 601.228C364.369 597.8 362.688 594.704 360.376 591.94C358.065 589.176 355.233 586.925 351.883 585.187C348.524 583.533 344.719 582.528 340.467 582.169C336.301 581.818 332.368 582.172 328.669 583.23C325.047 584.38 321.845 586.08 319.063 588.329C316.273 590.662 314.038 593.471 312.359 596.755C310.679 600.039 309.652 603.677 309.277 607.67Z" fill="white" fill-opacity="0.65"/>
<path d="M285.859 663.028L367.39 700.187L352.13 735.843C348.974 743.217 345.051 749.023 340.361 753.261C335.748 757.534 330.608 760.113 324.939 760.998C319.271 761.884 313.37 760.929 307.235 758.133C301.179 755.373 296.559 751.532 293.375 746.613C290.269 741.728 288.693 736.088 288.646 729.691C288.6 723.295 290.155 716.41 293.311 709.035L304.038 683.971L308.682 696.212L277.7 682.092L285.859 663.028ZM263.447 715.394L301.845 708.284L293.132 728.642L254.633 735.987L263.447 715.394ZM306.585 695.257L319.063 690.818L308.789 714.824C306.271 720.708 305.633 725.667 306.876 729.703C308.196 733.773 311.069 736.817 315.495 738.834C319.999 740.887 324.114 741.028 327.841 739.258C331.568 737.487 334.691 733.66 337.209 727.777L347.483 703.771L352.825 716.331L306.585 695.257Z" fill="white" fill-opacity="0.65"/>
<path d="M253.074 743.075L316.112 806.748L304.508 819.379L234.215 802.533L240.364 795.841L259.477 868.394L247.96 880.931L184.749 817.445L197.911 803.118L240.053 845.503L237.629 848.143L222.501 790.337L228.823 783.456L284.911 796.677L281.967 799.882L239.911 757.402L253.074 743.075Z" fill="white" fill-opacity="0.65"/>
<path d="M149.834 834.828C156.106 831.358 162.529 828.875 169.105 827.381C175.717 825.962 181.454 825.662 186.315 826.479L187.024 843.911C182.462 843.318 177.51 843.477 172.167 844.387C166.787 845.415 161.745 847.231 157.041 849.833C153.457 851.816 150.751 853.751 148.923 855.639C147.059 857.645 145.923 859.588 145.516 861.469C145.108 863.35 145.318 865.134 146.143 866.82C147.194 868.966 148.841 870.197 151.085 870.514C153.366 870.908 156.038 870.745 159.101 870.024C162.202 869.38 165.564 868.494 169.187 867.366C172.773 866.356 176.472 865.479 180.283 864.734C184.019 864.031 187.644 863.779 191.158 863.978C194.672 864.176 197.963 865.18 201.032 866.989C204.026 868.839 206.574 871.91 208.676 876.201C210.928 880.8 211.779 885.637 211.229 890.714C210.641 895.909 208.465 900.96 204.7 905.868C200.898 910.893 195.301 915.45 187.909 919.54C182.981 922.266 177.827 924.338 172.448 925.756C167.106 927.25 162.024 927.822 157.201 927.47L155.876 910.233C160.586 910.354 165.014 909.901 169.161 908.873C173.345 907.922 177.192 906.476 180.702 904.534C184.211 902.593 186.879 900.581 188.706 898.499C190.534 896.416 191.595 894.417 191.89 892.501C192.222 890.661 191.957 888.86 191.094 887.097C190.08 885.028 188.433 883.796 186.152 883.402C183.909 883.085 181.256 883.287 178.192 884.007C175.129 884.728 171.804 885.594 168.218 886.603C164.557 887.655 160.877 888.57 157.179 889.35C153.405 890.172 149.762 890.483 146.248 890.284C142.734 890.085 139.48 889.061 136.486 887.211C133.418 885.402 130.851 882.39 128.787 878.175C126.572 873.654 125.777 868.834 126.402 863.716C127.027 858.597 129.24 853.526 133.042 848.5C136.77 843.516 142.367 838.959 149.834 834.828Z" fill="white" fill-opacity="0.65"/>
<path d="M596.28 710.299L602.543 690.531L689.013 714.007L682.75 733.774L596.28 710.299ZM670.457 772.578L664.195 792.346L577.725 768.87L583.987 749.102L670.457 772.578ZM647.761 722.685L634.541 764.417L617.617 759.823L630.838 718.091L647.761 722.685Z" fill="white" fill-opacity="0.37"/>
<path d="M713.366 686.443C709.059 692.172 704.125 697.18 698.566 701.467C692.933 705.711 687.594 708.646 682.548 710.274L673.381 696.625C678.031 694.958 682.689 692.505 687.355 689.265C691.999 685.913 695.936 682.089 699.167 677.792C701.629 674.518 703.274 671.695 704.102 669.323C704.908 666.838 705.048 664.746 704.521 663.046C703.995 661.346 702.926 660.013 701.315 659.049C699.265 657.822 697.091 657.607 694.791 658.407C692.418 659.162 689.943 660.548 687.364 662.565C684.713 664.538 681.929 666.828 679.014 669.434C676.077 671.929 672.967 674.37 669.686 676.757C666.456 679.076 663.112 680.981 659.655 682.472C656.199 683.963 652.563 684.703 648.747 684.694C644.984 684.616 641.052 683.35 636.952 680.895C632.559 678.265 629.389 674.785 627.443 670.454C625.475 666.011 625.096 660.938 626.306 655.233C627.494 649.417 630.627 643.132 635.704 636.38C639.089 631.878 643.008 627.796 647.461 624.132C651.842 620.425 656.423 617.579 661.205 615.596L670.867 628.8C666.304 630.914 662.29 633.358 658.826 636.13C655.288 638.858 652.314 641.825 649.904 645.031C647.493 648.236 645.922 651.103 645.188 653.631C644.455 656.16 644.414 658.262 645.065 659.938C645.643 661.569 646.774 662.89 648.458 663.898C650.435 665.081 652.61 665.296 654.982 664.54C657.282 663.741 659.721 662.333 662.299 660.316C664.878 658.299 667.635 656.044 670.573 653.549C673.561 650.986 676.634 648.524 679.791 646.161C682.999 643.73 686.332 641.769 689.789 640.278C693.245 638.787 696.856 638.08 700.62 638.158C704.435 638.167 708.356 639.378 712.382 641.789C716.702 644.375 719.809 647.868 721.704 652.266C723.599 656.665 723.953 661.773 722.764 667.59C721.627 673.338 718.495 679.622 713.366 686.443Z" fill="white" fill-opacity="0.37"/>
<path d="M718.628 602.872L753.305 577.216L764.499 588.827L729.822 614.483L718.628 602.872ZM745.449 628.497L784.653 599.491L796.203 611.47L740.432 652.733L678.243 588.23L732.676 547.957L744.225 559.936L706.359 587.952L745.449 628.497Z" fill="white" fill-opacity="0.37"/>
<path d="M845.711 542.156L887.53 532.111L892.927 547.851L851.109 557.896L845.711 542.156ZM863.19 588.413L843.028 593.256L813.963 508.501L879.803 492.686L885.2 508.426L839.523 519.398L863.19 588.413Z" fill="white" fill-opacity="0.37"/>
<path d="M961.034 578.267C953.957 577.971 947.412 576.545 941.4 573.989C935.472 571.436 930.328 567.977 925.968 563.611C921.693 559.249 918.369 554.201 915.995 548.466C913.707 542.736 912.621 536.543 912.738 529.888C912.855 523.233 914.157 517.139 916.643 511.608C919.214 506.08 922.753 501.318 927.26 497.323C931.767 493.327 937.025 490.302 943.033 488.248C949.042 486.193 955.542 485.312 962.533 485.604C969.61 485.899 976.069 487.321 981.912 489.871C987.839 492.423 992.941 495.881 997.215 500.243C1001.58 504.609 1004.94 509.659 1007.32 515.393C1009.69 521.042 1010.82 527.237 1010.7 533.977C1010.58 540.632 1009.24 546.766 1006.67 552.38C1004.09 557.908 1000.56 562.669 996.049 566.665C991.629 570.579 986.414 573.563 980.406 575.617C974.482 577.676 968.025 578.559 961.034 578.267ZM961.216 560.6C965.223 560.767 968.901 560.238 972.25 559.012C975.685 557.789 978.703 555.951 981.306 553.498C983.909 551.045 985.923 548.098 987.348 544.657C988.859 541.22 989.652 537.368 989.727 533.102C989.802 528.836 989.146 524.923 987.758 521.365C986.455 517.81 984.547 514.699 982.034 512.033C979.607 509.37 976.7 507.285 973.313 505.777C969.927 504.27 966.23 503.432 962.223 503.265C958.216 503.098 954.495 503.625 951.061 504.848C947.712 506.074 944.736 507.914 942.133 510.367C939.53 512.82 937.474 515.765 935.963 519.202C934.537 522.644 933.787 526.497 933.712 530.763C933.638 534.944 934.252 538.854 935.554 542.495C936.942 546.054 938.849 549.164 941.277 551.827C943.79 554.493 946.739 556.58 950.126 558.088C953.512 559.595 957.209 560.433 961.216 560.6Z" fill="white" fill-opacity="0.37"/>
<path d="M1020.84 581.471L1054.79 498.549L1091.49 511.092C1099.08 513.687 1105.12 517.146 1109.6 521.471C1114.13 525.717 1116.96 530.601 1118.1 536.123C1119.25 541.646 1118.54 547.526 1115.99 553.765C1113.47 559.925 1109.79 564.745 1104.96 568.226C1100.16 571.627 1094.53 573.574 1088.07 574.066C1081.61 574.559 1074.59 573.508 1067 570.914L1041.2 562.097L1053.36 556.667L1040.46 588.177L1020.84 581.471ZM1074.74 599.892L1065.86 562.559L1086.82 569.72L1095.94 607.136L1074.74 599.892ZM1052.49 558.799L1047.45 546.816L1072.16 555.26C1078.22 557.33 1083.26 557.612 1087.28 556.106C1091.33 554.521 1094.28 551.478 1096.13 546.976C1098 542.396 1097.96 538.332 1096.01 534.783C1094.06 531.235 1090.05 528.426 1084 526.356L1059.29 517.912L1071.74 511.771L1052.49 558.799Z" fill="white" fill-opacity="0.37"/>
<path d="M1106.33 607.684L1168.68 543.337L1182.34 553.708L1168.72 622.182L1161.48 616.687L1235.36 593.954L1248.91 604.248L1186.77 668.749L1171.27 656.985L1212.77 613.979L1215.62 616.146L1156.76 634.162L1149.32 628.512L1159.96 573.888L1163.42 576.52L1121.82 619.448L1106.33 607.684Z" fill="white" fill-opacity="0.37"/>
<path d="M1209.35 702.093C1205.28 696.19 1202.22 690.102 1200.16 683.829C1198.18 677.518 1197.42 672.006 1197.87 667.294L1215.74 665.93C1215.49 670.345 1216.05 675.107 1217.41 680.216C1218.89 685.356 1221.16 690.14 1224.21 694.567C1226.53 697.941 1228.74 700.47 1230.82 702.156C1233.03 703.873 1235.12 704.891 1237.09 705.21C1239.06 705.528 1240.87 705.257 1242.54 704.396C1244.67 703.3 1245.8 701.666 1245.95 699.494C1246.17 697.282 1245.79 694.716 1244.81 691.794C1243.9 688.834 1242.72 685.631 1241.28 682.187C1239.95 678.773 1238.76 675.247 1237.69 671.606C1236.67 668.036 1236.12 664.556 1236.05 661.165C1235.98 657.774 1236.75 654.566 1238.36 651.54C1240.03 648.585 1242.98 646.012 1247.23 643.82C1251.78 641.472 1256.69 640.463 1261.95 640.795C1267.34 641.157 1272.71 643.055 1278.05 646.488C1283.52 649.952 1288.65 655.163 1293.44 662.121C1296.64 666.76 1299.18 671.641 1301.06 676.765C1303.02 681.85 1304.01 686.721 1304.03 691.378L1286.41 693.327C1286.16 688.788 1285.35 684.542 1283.96 680.589C1282.65 676.598 1280.86 672.95 1278.58 669.647C1276.31 666.344 1274.03 663.854 1271.74 662.176C1269.46 660.498 1267.32 659.554 1265.32 659.345C1263.4 659.097 1261.57 659.423 1259.83 660.323C1257.78 661.38 1256.65 663.014 1256.42 665.225C1256.27 667.398 1256.69 669.944 1257.67 672.866C1258.66 675.787 1259.81 678.955 1261.14 682.368C1262.51 685.852 1263.74 689.359 1264.84 692.89C1265.98 696.491 1266.59 699.987 1266.66 703.378C1266.74 706.769 1265.94 709.942 1264.28 712.897C1262.66 715.923 1259.77 718.511 1255.6 720.664C1251.12 722.973 1246.23 723.927 1240.92 723.525C1235.6 723.124 1230.21 721.191 1224.74 717.726C1219.32 714.332 1214.19 709.121 1209.35 702.093Z" fill="white" fill-opacity="0.37"/>
<path d="M1862.88 359.082L1848.43 373.946L1782.4 313.376L1796.86 298.511L1862.88 359.082ZM1825.24 269.332L1839.7 254.468L1905.72 315.038L1891.26 329.903L1825.24 269.332ZM1822.86 324.446L1853.38 293.065L1866.3 304.92L1835.78 336.301L1822.86 324.446Z" fill="white" fill-opacity="0.66"/>
<path d="M1731.32 345.209C1737.7 341.955 1744.31 339.639 1751.14 338.262C1758.01 336.957 1764.03 336.708 1769.2 337.515L1771.02 354.065C1766.18 353.473 1760.98 353.592 1755.41 354.423C1749.81 355.365 1744.62 357.056 1739.83 359.497C1736.18 361.356 1733.45 363.176 1731.64 364.956C1729.81 366.848 1728.73 368.685 1728.42 370.468C1728.1 372.251 1728.44 373.945 1729.41 375.55C1730.65 377.594 1732.46 378.773 1734.84 379.088C1737.26 379.477 1740.06 379.338 1743.24 378.674C1746.47 378.082 1749.95 377.262 1753.69 376.214C1757.41 375.278 1761.24 374.469 1765.21 373.786C1769.1 373.142 1772.9 372.925 1776.61 373.136C1780.32 373.347 1783.84 374.321 1787.19 376.057C1790.45 377.832 1793.32 380.762 1795.8 384.849C1798.45 389.227 1799.65 393.824 1799.38 398.639C1799.08 403.566 1797.11 408.347 1793.45 412.981C1789.76 417.727 1784.15 422.017 1776.62 425.852C1771.6 428.409 1766.3 430.343 1760.73 431.655C1755.2 433.039 1749.89 433.549 1744.79 433.185L1742.33 416.817C1747.3 416.962 1751.93 416.559 1756.23 415.61C1760.57 414.733 1764.53 413.385 1768.11 411.564C1771.68 409.744 1774.36 407.851 1776.16 405.886C1777.95 403.921 1778.95 402.03 1779.14 400.213C1779.38 398.469 1778.99 396.758 1777.97 395.079C1776.77 393.109 1774.96 391.93 1772.54 391.542C1770.16 391.226 1767.38 391.401 1764.2 392.066C1761.02 392.731 1757.57 393.531 1753.86 394.467C1750.07 395.442 1746.26 396.287 1742.41 397.005C1738.49 397.76 1734.68 398.033 1730.97 397.822C1727.26 397.611 1723.77 396.618 1720.5 394.843C1717.16 393.107 1714.28 390.233 1711.84 386.219C1709.23 381.914 1708.1 377.334 1708.44 372.48C1708.78 367.626 1710.8 362.826 1714.49 358.08C1718.1 353.373 1723.71 349.083 1731.32 345.209Z" fill="white" fill-opacity="0.66"/>
<path d="M1670.41 428.411L1628.01 436.342L1623.61 420.826L1666.01 412.895L1670.41 428.411ZM1658.84 393.227L1610.91 402.194L1606.37 386.185L1674.56 373.429L1699 459.632L1632.44 472.082L1627.91 456.073L1674.21 447.412L1658.84 393.227Z" fill="white" fill-opacity="0.66"/>
<path d="M1499.1 431.064L1457.15 421.559L1459.75 405.122L1501.69 414.627L1499.1 431.064ZM1505.28 382.047L1525.51 386.629L1511.54 475.134L1445.5 460.17L1448.09 443.733L1493.91 454.115L1505.28 382.047Z" fill="white" fill-opacity="0.66"/>
<path d="M1393.94 342.86C1400.12 346.319 1405.31 350.542 1409.5 355.529C1413.63 360.476 1416.63 365.874 1418.53 371.723C1420.34 377.531 1421 383.52 1420.49 389.689C1419.91 395.816 1418.05 401.811 1414.89 407.674C1411.74 413.537 1407.79 418.365 1403.04 422.159C1398.21 425.911 1392.87 428.546 1387.02 430.062C1381.17 431.578 1375.09 431.893 1368.79 431.005C1362.48 430.118 1356.28 427.966 1350.17 424.549C1343.99 421.091 1338.88 416.909 1334.83 412.005C1330.71 407.059 1327.74 401.681 1325.92 395.873C1324.03 390.024 1323.34 384.014 1323.84 377.845C1324.31 371.751 1326.14 365.735 1329.33 359.798C1332.48 353.935 1336.49 349.09 1341.36 345.262C1346.18 341.51 1351.52 338.876 1357.37 337.359C1363.11 335.877 1369.13 335.579 1375.44 336.466C1381.66 337.312 1387.83 339.443 1393.94 342.86ZM1385.69 358.481C1382.19 356.523 1378.66 355.332 1375.11 354.91C1371.49 354.446 1367.95 354.716 1364.5 355.721C1361.06 356.726 1357.91 358.436 1355.06 360.851C1352.14 363.224 1349.67 366.29 1347.65 370.048C1345.63 373.806 1344.42 377.58 1344.03 381.37C1343.57 385.118 1343.85 388.745 1344.87 392.25C1345.82 395.713 1347.46 398.88 1349.79 401.749C1352.12 404.618 1355.04 407.032 1358.54 408.99C1362.04 410.949 1365.6 412.16 1369.22 412.624C1372.78 413.047 1376.27 412.755 1379.72 411.751C1383.17 410.746 1386.35 409.057 1389.27 406.683C1392.12 404.268 1394.55 401.182 1396.57 397.424C1398.55 393.741 1399.8 389.988 1400.3 386.164C1400.69 382.374 1400.41 378.747 1399.47 375.284C1398.45 371.779 1396.77 368.592 1394.44 365.723C1392.1 362.853 1389.19 360.44 1385.69 358.481Z" fill="white" fill-opacity="0.66"/>
<path d="M1320.59 300.313L1253.25 359.419L1226.48 331.355C1220.95 325.551 1217.17 319.678 1215.15 313.734C1213.07 307.846 1212.77 302.156 1214.24 296.663C1215.72 291.17 1218.99 286.2 1224.06 281.753C1229.06 277.362 1234.48 274.705 1240.32 273.781C1246.09 272.913 1251.94 273.734 1257.87 276.244C1263.79 278.754 1269.53 282.911 1275.06 288.715L1293.88 308.443L1280.69 307.769L1306.28 285.309L1320.59 300.313ZM1281.28 259.099L1272.3 296.753L1257.02 280.73L1265.82 242.89L1281.28 259.099ZM1282.42 306.249L1281.47 319.335L1263.45 300.441C1259.03 295.81 1254.71 293.253 1250.48 292.77C1246.18 292.343 1242.2 293.734 1238.55 296.942C1234.83 300.207 1233.03 303.882 1233.16 307.968C1233.29 312.054 1235.56 316.413 1239.98 321.043L1258 339.937L1244.23 339.771L1282.42 306.249Z" fill="white" fill-opacity="0.66"/>
<path d="M1242.17 221.537L1157.95 252.112L1150.75 236.541L1194.2 180.334L1198.01 188.584L1122.85 176.113L1115.71 160.658L1199.82 129.85L1207.98 147.514L1151.85 168.028L1150.35 164.774L1210.19 174.801L1214.11 183.284L1179.65 228.223L1177.82 224.272L1234.01 203.874L1242.17 221.537Z" fill="white" fill-opacity="0.66"/>
<path d="M1184.8 64.8301C1185.6 71.9531 1185.43 78.8011 1184.29 85.3741C1183.06 91.9491 1181.14 97.265 1178.51 101.322L1162.12 94.688C1164.42 90.8087 1166.17 86.262 1167.38 81.0478C1168.5 75.7507 1168.75 70.431 1168.15 65.0887C1167.69 61.0184 1166.94 57.7626 1165.9 55.3212C1164.76 52.7971 1163.4 50.9582 1161.81 49.8047C1160.23 48.6511 1158.5 48.0961 1156.62 48.1397C1154.23 48.1951 1152.46 49.1714 1151.31 51.0686C1150.07 52.9678 1149.19 55.4537 1148.68 58.5262C1148.09 61.6007 1147.61 65.0124 1147.27 68.7614C1146.82 72.4275 1146.22 76.1399 1145.44 79.8988C1144.66 83.5728 1143.5 86.9579 1141.96 90.0542C1140.43 93.1505 1138.24 95.7094 1135.39 97.731C1132.53 99.6678 1128.71 100.692 1123.93 100.802C1118.81 100.921 1114.01 99.6722 1109.52 97.0556C1104.94 94.3562 1101.11 90.2792 1098.01 84.8247C1094.82 79.2874 1092.76 72.3212 1091.81 63.9262C1091.18 58.3295 1091.24 52.8018 1092 47.3431C1092.67 41.8863 1094.09 37.0497 1096.27 32.8332L1112.72 38.828C1110.8 43.0385 1109.52 47.2342 1108.88 51.4151C1108.15 55.5979 1108.01 59.682 1108.46 63.6676C1108.91 67.6531 1109.75 70.9069 1110.97 73.4291C1112.19 75.9513 1113.64 77.7458 1115.3 78.8125C1116.87 79.8813 1118.64 80.3929 1120.6 80.3474C1122.9 80.2939 1124.68 79.3176 1125.92 77.4184C1127.07 75.5212 1127.9 73.0363 1128.41 69.9638C1128.92 66.8913 1129.4 63.522 1129.84 59.8559C1130.28 56.1049 1130.84 52.3935 1131.54 48.7214C1132.23 44.9646 1133.34 41.538 1134.87 38.4417C1136.41 35.3455 1138.61 32.8289 1141.47 30.8921C1144.32 28.8706 1148.09 27.8053 1152.78 27.6965C1157.82 27.5798 1162.58 28.8721 1167.07 31.5735C1171.57 34.2749 1175.41 38.3942 1178.6 43.9315C1181.78 49.3841 1183.85 56.3502 1184.8 64.8301Z" fill="white" fill-opacity="0.66"/>
<path d="M1620.3 721.434L1618.37 742.08L1529.09 734.497L1531.02 713.851L1620.3 721.434ZM1534.81 673.324L1536.74 652.678L1626.02 660.261L1624.09 680.907L1534.81 673.324ZM1567.48 718.49L1571.56 674.904L1589.03 676.388L1584.95 719.974L1567.48 718.49Z" fill="white" fill-opacity="0.67"/>
<path d="M1513.29 757.256C1516.12 750.669 1519.7 744.707 1524.03 739.371C1528.44 734.067 1532.86 730.148 1537.29 727.612L1548.99 739.927C1544.95 742.434 1541.07 745.744 1537.35 749.857C1533.68 754.08 1530.79 758.662 1528.67 763.602C1527.06 767.367 1526.12 770.53 1525.85 773.091C1525.64 775.763 1525.96 777.92 1526.84 779.561C1527.71 781.202 1529.02 782.374 1530.76 783.076C1532.98 783.971 1535.09 783.811 1537.09 782.596C1539.18 781.414 1541.22 779.571 1543.23 777.067C1545.31 774.596 1547.44 771.778 1549.64 768.615C1551.87 765.562 1554.29 762.534 1556.88 759.531C1559.43 756.606 1562.18 754.083 1565.13 751.963C1568.09 749.842 1571.37 748.455 1575 747.801C1578.59 747.226 1582.6 747.833 1587.03 749.621C1591.77 751.538 1595.55 754.533 1598.35 758.608C1601.2 762.793 1602.67 767.897 1602.78 773.921C1602.93 780.055 1601.35 787.004 1598.02 794.768C1595.8 799.944 1592.98 804.786 1589.56 809.294C1586.22 813.833 1582.5 817.53 1578.39 820.382L1566.32 808.607C1570.18 805.659 1573.45 802.471 1576.13 799.044C1578.89 795.648 1581.05 792.107 1582.64 788.422C1584.22 784.736 1585.08 781.541 1585.22 778.837C1585.35 776.133 1584.93 773.984 1583.94 772.389C1583.04 770.827 1581.67 769.678 1579.85 768.943C1577.72 768.081 1575.6 768.241 1573.52 769.423C1571.51 770.637 1569.51 772.496 1567.51 775C1565.5 777.504 1563.38 780.282 1561.15 783.335C1558.87 786.466 1556.5 789.51 1554.03 792.467C1551.52 795.502 1548.79 798.08 1545.83 800.201C1542.88 802.321 1539.61 803.669 1536.02 804.245C1532.4 804.898 1528.41 804.347 1524.06 802.59C1519.39 800.706 1515.67 797.687 1512.91 793.534C1510.14 789.381 1508.68 784.237 1508.53 778.103C1508.34 772.047 1509.93 765.098 1513.29 757.256Z" fill="white" fill-opacity="0.67"/>
<path d="M1530.64 836.459L1503.32 869.835L1490.57 859.956L1517.9 826.58L1530.64 836.459ZM1500.53 815.066L1469.64 852.799L1456.49 842.606L1500.44 788.927L1571.26 843.814L1528.36 896.206L1515.21 886.012L1545.05 849.566L1500.53 815.066Z" fill="white" fill-opacity="0.67"/>
<path d="M1435.5 912.786L1397.09 932.149L1389.31 917.439L1427.72 898.076L1435.5 912.786ZM1411.09 869.913L1429.6 860.578L1471.49 939.785L1411.03 970.271L1403.25 955.561L1445.19 934.411L1411.09 869.913Z" fill="white" fill-opacity="0.67"/>
<path d="M1329.75 894.599C1336.74 893.45 1343.41 893.521 1349.77 894.81C1356.05 896.113 1361.73 898.466 1366.81 901.87C1371.8 905.286 1375.99 909.571 1379.37 914.722C1382.67 919.888 1384.88 925.752 1385.99 932.315C1387.1 938.877 1386.95 945.128 1385.53 951.069C1384.03 957.023 1381.44 962.421 1377.76 967.263C1374.08 972.105 1369.48 976.146 1363.97 979.386C1358.46 982.626 1352.25 984.814 1345.35 985.948C1338.36 987.097 1331.77 987.012 1325.57 985.695C1319.3 984.392 1313.66 982.032 1308.67 978.615C1303.59 975.212 1299.36 970.935 1295.98 965.783C1292.61 960.716 1290.36 954.858 1289.24 948.212C1288.12 941.649 1288.31 935.349 1289.8 929.311C1291.3 923.356 1293.89 917.958 1297.57 913.116C1301.18 908.372 1305.74 904.38 1311.25 901.14C1316.68 897.914 1322.84 895.733 1329.75 894.599ZM1332.82 911.994C1328.87 912.644 1325.36 913.912 1322.3 915.798C1319.16 917.697 1316.54 920.117 1314.44 923.056C1312.35 925.995 1310.92 929.3 1310.15 932.971C1309.31 936.656 1309.24 940.601 1309.95 944.808C1310.66 949.015 1312.03 952.725 1314.04 955.94C1315.97 959.168 1318.42 961.837 1321.37 963.945C1324.24 966.068 1327.47 967.526 1331.07 968.319C1334.67 969.112 1338.44 969.183 1342.4 968.532C1346.36 967.882 1349.91 966.607 1353.05 964.708C1356.1 962.822 1358.68 960.409 1360.78 957.47C1362.88 954.531 1364.35 951.219 1365.2 947.535C1365.96 943.864 1365.99 939.925 1365.27 935.718C1364.57 931.595 1363.25 927.878 1361.31 924.566C1359.29 921.351 1356.85 918.683 1353.98 916.56C1351.02 914.451 1347.75 913 1344.15 912.208C1340.56 911.415 1336.78 911.344 1332.82 911.994Z" fill="white" fill-opacity="0.67"/>
<path d="M1289.21 900.727L1274.26 989.071L1235.94 983.064C1228.02 981.822 1221.41 979.447 1216.12 975.94C1210.81 972.517 1207 968.163 1204.7 962.878C1202.39 957.594 1201.8 951.628 1202.92 944.981C1204.03 938.418 1206.55 932.983 1210.48 928.677C1214.4 924.454 1219.44 921.53 1225.6 919.905C1231.76 918.279 1238.8 918.088 1246.73 919.33L1273.66 923.553L1263.04 931.086L1268.72 897.515L1289.21 900.727ZM1232.93 891.905L1249.64 927.43L1227.76 924.001L1210.8 888.435L1232.93 891.905ZM1263.42 928.814L1270.91 939.833L1245.11 935.789C1238.79 934.798 1233.84 935.404 1230.26 937.607C1226.67 939.895 1224.47 943.436 1223.66 948.232C1222.84 953.112 1223.75 957.143 1226.42 960.324C1229.08 963.506 1233.57 965.592 1239.9 966.583L1265.69 970.628L1254.95 978.918L1263.42 928.814Z" fill="white" fill-opacity="0.67"/>
<path d="M1217.94 889.925L1173.05 967.473L1158 959.251L1156.2 886.238L1164.18 890.595L1099.59 927.342L1084.65 919.181L1129.31 841.511L1146.38 850.838L1116.55 902.635L1113.4 900.916L1164.89 871.738L1173.09 876.217L1174.74 934.42L1170.92 932.334L1200.86 880.598L1217.94 889.925Z" fill="white" fill-opacity="0.67"/>
<path d="M1118.58 820.209C1123.46 825.466 1127.42 831.123 1130.48 837.182C1133.47 843.297 1135.18 848.84 1135.6 853.81L1119.09 858.962C1118.53 854.342 1117.15 849.532 1114.96 844.531C1112.64 839.523 1109.66 835.048 1106 831.106C1103.22 828.102 1100.7 825.946 1098.44 824.639C1096.06 823.325 1093.92 822.709 1092.02 822.791C1090.11 822.873 1088.46 823.534 1087.05 824.774C1085.26 826.352 1084.48 828.281 1084.73 830.559C1084.92 832.894 1085.74 835.47 1087.19 838.287C1088.57 841.16 1090.25 844.226 1092.23 847.487C1094.08 850.742 1095.83 854.141 1097.49 857.683C1099.09 861.163 1100.23 864.65 1100.91 868.143C1101.58 871.636 1101.44 875.116 1100.47 878.585C1099.44 881.991 1097.13 885.272 1093.54 888.428C1089.69 891.81 1085.27 893.881 1080.28 894.64C1075.16 895.393 1069.79 894.553 1064.16 892.12C1058.41 889.68 1052.66 885.363 1046.92 879.167C1043.09 875.037 1039.83 870.518 1037.14 865.611C1034.39 860.761 1032.59 855.928 1031.73 851.115L1047.9 845.409C1048.95 850.054 1050.48 854.276 1052.49 858.075C1054.44 861.93 1056.77 865.329 1059.5 868.27C1062.22 871.211 1064.81 873.311 1067.26 874.568C1069.7 875.826 1071.88 876.354 1073.78 876.153C1075.63 876.008 1077.29 875.288 1078.76 873.991C1080.49 872.47 1081.26 870.541 1081.07 868.206C1080.82 865.928 1079.97 863.38 1078.53 860.563C1077.08 857.747 1075.43 854.711 1073.57 851.457C1071.66 848.139 1069.87 844.769 1068.21 841.345C1066.49 837.859 1065.29 834.369 1064.61 830.876C1063.94 827.383 1064.11 823.934 1065.14 820.528C1066.11 817.06 1068.36 813.775 1071.89 810.675C1075.67 807.35 1080.08 805.339 1085.14 804.642C1090.19 803.945 1095.59 804.817 1101.34 807.256C1107.04 809.633 1112.78 813.951 1118.58 820.209Z" fill="white" fill-opacity="0.67"/>
</g>
<defs>
<linearGradient id="paint0_linear_52_26" x1="960" y1="0" x2="960" y2="1098.5" gradientUnits="userSpaceOnUse">
<stop stop-color="#0029FF" stop-opacity="0.49"/>
<stop offset="0.192608" stop-color="#0029FF" stop-opacity="0.36"/>
<stop offset="0.376942" stop-color="#0029FF" stop-opacity="0.23"/>
<stop offset="0.548564" stop-color="#0029FF" stop-opacity="0.18"/>
<stop offset="0.739256" stop-color="#0029FF" stop-opacity="0.11"/>
<stop offset="1" stop-color="#0029FF" stop-opacity="0.04"/>
</linearGradient>
<clipPath id="clip0_52_26">
<rect width="1920" height="1080" fill="white"/>
</clipPath>
</defs>
</svg>
