<svg width="1920" height="1080" viewBox="0 0 1920 1080" fill="none" xmlns="http://www.w3.org/2000/svg">
<g clip-path="url(#clip0_52_26)">
<rect width="1920" height="1080" fill="url(#paint0_linear_52_26)"/>
<path d="M378.947 90.7856L396.247 102.218L346.7 176.872L329.4 165.44L378.947 90.7856ZM295.44 142.999L278.14 131.567L327.688 56.9131L344.988 68.3451L295.44 142.999ZM350.996 135.678L314.473 111.544L324.17 96.9332L360.693 121.067L350.996 135.678Z" fill="white"/>
<path d="M405.372 231.801C400.848 226.24 397.244 220.323 394.559 214.049C391.941 207.721 390.563 202.038 390.425 197.001L407.031 192.668C407.327 197.359 408.42 202.286 410.309 207.447C412.319 212.622 415.02 217.294 418.413 221.464C420.998 224.641 423.371 226.949 425.531 228.387C427.811 229.837 429.893 230.571 431.777 230.588C433.661 230.605 435.334 230.025 436.796 228.847C438.657 227.349 439.527 225.443 439.405 223.131C439.351 220.765 438.686 218.123 437.412 215.205C436.204 212.233 434.715 209.05 432.944 205.656C431.292 202.274 429.747 198.753 428.308 195.091C426.923 191.496 425.992 187.918 425.516 184.357C425.039 180.797 425.378 177.292 426.532 173.843C427.74 170.46 430.205 167.27 433.927 164.273C437.915 161.062 442.399 159.205 447.379 158.701C452.48 158.209 457.744 159.339 463.172 162.089C468.72 164.852 474.16 169.511 479.492 176.064C483.046 180.433 486.015 185.163 488.398 190.256C490.848 195.295 492.362 200.266 492.94 205.168L476.638 210.078C475.861 205.336 474.584 200.995 472.81 197.056C471.101 193.063 468.982 189.511 466.45 186.4C463.919 183.289 461.48 181.035 459.134 179.638C456.787 178.241 454.665 177.594 452.769 177.697C450.939 177.746 449.259 178.386 447.731 179.617C445.936 181.062 445.066 182.967 445.121 185.333C445.242 187.646 445.94 190.261 447.214 193.179C448.488 196.097 449.951 199.247 451.602 202.629C453.307 206.076 454.885 209.571 456.337 213.113C457.842 216.722 458.833 220.306 459.31 223.866C459.786 227.426 459.421 230.898 458.213 234.281C457.059 237.73 454.654 240.926 450.998 243.87C447.077 247.027 442.599 248.825 437.565 249.263C432.531 249.701 427.24 248.538 421.691 245.775C416.197 243.078 410.757 238.42 405.372 231.801Z" fill="white"/>
<path d="M512.531 289.36L529.538 329.002L514.677 335.268L497.67 295.626L512.531 289.36ZM479.168 305.093L498.395 349.91L483.062 356.374L455.71 292.618L538.273 257.811L564.969 320.038L549.636 326.502L531.065 283.214L479.168 305.093Z" fill="white"/>
<path d="M558.135 473.517L557.401 516.519L540.764 516.159L541.499 473.157L558.135 473.517ZM508.841 473.986L509.195 453.253L598.774 455.193L597.617 522.895L580.981 522.535L581.783 475.566L508.841 473.986Z" fill="white"/>
<path d="M492.957 601C495.253 594.3 498.472 588.459 502.615 583.477C506.73 578.575 511.483 574.706 516.876 571.868C522.24 569.111 527.987 567.478 534.115 566.969C540.215 566.54 546.412 567.408 552.706 569.573C559 571.738 564.423 574.867 568.974 578.959C573.498 583.132 577.017 587.997 579.533 593.555C582.049 599.113 583.428 605.092 583.67 611.492C583.912 617.892 582.9 624.402 580.631 631.021C578.335 637.721 575.144 643.482 571.056 648.303C566.941 653.204 562.202 657.033 556.837 659.79C551.445 662.628 545.684 664.301 539.556 664.811C533.509 665.348 527.298 664.52 520.923 662.327C514.629 660.162 509.18 656.98 504.576 652.779C500.052 648.606 496.533 643.741 494.017 638.183C491.554 632.734 490.202 626.809 489.96 620.409C489.689 614.089 490.688 607.62 492.957 601ZM509.702 606.625C508.402 610.419 507.858 614.112 508.07 617.704C508.255 621.377 509.143 624.841 510.734 628.096C512.324 631.35 514.553 634.192 517.419 636.622C520.257 639.132 523.693 641.081 527.728 642.469C531.763 643.856 535.669 644.433 539.448 644.199C543.199 644.045 546.7 643.174 549.951 641.585C553.174 640.076 555.984 637.929 558.381 635.145C560.779 632.36 562.628 629.07 563.928 625.276C565.228 621.482 565.786 617.748 565.601 614.075C565.389 610.483 564.487 607.059 562.896 603.805C561.305 600.55 559.09 597.668 556.252 595.158C553.386 592.728 549.936 590.82 545.901 589.432C541.947 588.072 538.055 587.455 534.223 587.581C530.444 587.815 526.943 588.686 523.72 590.195C520.47 591.784 517.646 593.971 515.248 596.756C512.851 599.541 511.002 602.83 509.702 606.625Z" fill="white"/>
<path d="M460.399 691.26L531.398 745.917L507.652 776.582C502.741 782.924 497.461 787.582 491.812 790.556C486.23 793.582 480.546 794.86 474.759 794.389C468.971 793.919 463.407 791.627 458.065 787.515C452.791 783.455 449.193 778.693 447.272 773.229C445.419 767.818 445.254 762.038 446.778 755.888C448.302 749.739 451.52 743.493 456.431 737.151L473.124 715.594L474.683 728.425L447.703 707.655L460.399 691.26ZM425.525 736.296L465.002 738.418L451.444 755.926L411.81 754.006L425.525 736.296ZM472.857 727.019L486.208 725.667L470.221 746.312C466.302 751.373 464.458 755.984 464.689 760.146C464.987 764.36 467.063 767.951 470.918 770.918C474.839 773.937 478.849 775.031 482.946 774.2C487.043 773.37 491.05 770.424 494.969 765.364L510.956 744.719L513.123 758.018L472.857 727.019Z" fill="white"/>
<path d="M387.263 787.705L435.27 863.358L420.735 872.464L354.53 839.324L362.232 834.499L364.329 907.799L349.902 916.837L301.678 841.319L318.165 830.991L350.302 881.394L347.265 883.297L345.694 824.922L353.613 819.962L406.491 846.195L402.803 848.505L370.775 798.034L387.263 787.705Z" fill="white"/>
<path d="M225.038 870.152C232.008 868.48 238.913 867.789 245.751 868.08C252.61 868.453 258.357 869.663 262.992 871.71L259.881 888.515C255.494 886.759 250.555 885.618 245.065 885.093C239.512 884.67 234.121 885.085 228.894 886.339C224.911 887.294 221.808 888.434 219.585 889.756C217.3 891.182 215.75 892.739 214.935 894.426C214.121 896.113 213.938 897.868 214.387 899.691C214.958 902.011 216.32 903.615 218.472 904.503C220.645 905.473 223.327 906.015 226.518 906.127C229.73 906.321 233.253 906.354 237.088 906.224C240.86 906.196 244.715 906.325 248.652 906.609C252.506 906.913 256.151 907.618 259.587 908.725C263.023 909.831 266.063 911.647 268.707 914.172C271.267 916.717 273.119 920.309 274.262 924.949C275.486 929.92 275.271 934.754 273.616 939.451C271.898 944.251 268.639 948.499 263.837 952.196C258.973 955.995 252.433 958.88 244.218 960.85C238.741 962.164 233.184 962.795 227.547 962.743C221.93 962.774 216.772 961.993 212.074 960.4L214.531 943.62C219.169 944.965 223.653 945.688 227.984 945.79C232.336 945.975 236.462 945.599 240.362 944.664C244.262 943.728 247.345 942.506 249.609 940.998C251.874 939.489 253.362 937.86 254.074 936.11C254.805 934.442 254.937 932.656 254.467 930.75C253.916 928.513 252.554 926.909 250.382 925.938C248.229 925.051 245.558 924.551 242.366 924.439C239.175 924.327 235.693 924.284 231.921 924.312C228.066 924.359 224.221 924.272 220.388 924.051C216.471 923.849 212.795 923.195 209.359 922.089C205.922 920.983 202.924 919.157 200.364 916.612C197.72 914.087 195.837 910.546 194.715 905.989C193.51 901.101 193.777 896.298 195.515 891.581C197.254 886.864 200.555 882.606 205.419 878.807C210.2 875.028 216.74 872.143 225.038 870.152Z" fill="white"/>
<path d="M1004.93 910.876L1001.26 890.466L1089.48 874.804L1093.15 895.213L1004.93 910.876ZM1100.34 935.276L1104.01 955.686L1015.79 971.348L1012.12 950.939L1100.34 935.276ZM1056.71 900.123L1064.45 943.21L1047.18 946.275L1039.44 903.188L1056.71 900.123Z" fill="white"/>
<path d="M1096.09 839.036C1095.19 846.147 1093.4 852.839 1090.71 859.112C1087.94 865.373 1084.77 870.292 1081.22 873.869L1066.63 864.841C1069.82 861.389 1072.63 857.198 1075.06 852.269C1077.42 847.244 1078.94 842.064 1079.61 836.731C1080.13 832.668 1080.16 829.358 1079.71 826.803C1079.19 824.151 1078.28 822.138 1076.99 820.763C1075.71 819.388 1074.13 818.578 1072.27 818.332C1069.9 818.019 1067.92 818.705 1066.33 820.389C1064.66 822.061 1063.2 824.365 1061.97 827.301C1060.65 830.226 1059.38 833.5 1058.15 837.125C1056.84 840.653 1055.36 844.202 1053.7 847.77C1052.05 851.254 1050.11 854.397 1047.86 857.199C1045.61 860.001 1042.84 862.174 1039.55 863.719C1036.27 865.179 1032.26 865.597 1027.52 864.971C1022.44 864.301 1018 862.338 1014.2 859.082C1010.33 855.73 1007.51 851.141 1005.75 845.314C1003.93 839.392 1003.54 832.24 1004.61 823.859C1005.31 818.272 1006.69 812.859 1008.73 807.62C1010.69 802.369 1013.24 797.843 1016.39 794.041L1031.19 802.451C1028.3 806.286 1026.04 810.206 1024.41 814.209C1022.7 818.2 1021.59 822.185 1021.09 826.164C1020.58 830.143 1020.63 833.464 1021.24 836.126C1021.85 838.789 1022.85 840.771 1024.23 842.072C1025.53 843.363 1027.15 844.136 1029.1 844.393C1031.38 844.695 1033.36 844.009 1035.03 842.337C1036.62 840.653 1038.04 838.343 1039.27 835.407C1040.5 832.471 1041.77 829.239 1043.08 825.711C1044.4 822.098 1045.84 818.544 1047.4 815.049C1048.97 811.469 1050.88 808.278 1053.13 805.476C1055.38 802.674 1058.14 800.543 1061.42 799.083C1064.72 797.538 1068.69 797.073 1073.34 797.687C1078.33 798.346 1082.72 800.346 1086.51 803.687C1090.31 807.027 1093.12 811.659 1094.94 817.581C1096.78 823.419 1097.17 830.57 1096.09 839.036Z" fill="white"/>
<path d="M1059.22 758.507L1076.17 718.842L1090.96 725.273L1074.01 764.939L1059.22 758.507ZM1093.63 771.795L1112.8 726.951L1128.06 733.587L1100.79 797.381L1018.62 761.65L1045.23 699.387L1060.49 706.022L1041.98 749.336L1093.63 771.795Z" fill="white"/>
<path d="M1134.56 649.589L1166.19 620.445L1177.41 632.733L1145.78 661.877L1134.56 649.589ZM1168.92 684.94L1153.67 698.992L1093.25 632.825L1143.05 586.94L1154.27 599.228L1119.72 631.061L1168.92 684.94Z" fill="white"/>
<path d="M1245.43 635.312C1239 638.275 1232.55 639.976 1226.08 640.416C1219.7 640.82 1213.61 640.051 1207.84 638.107C1202.14 636.127 1196.99 633.095 1192.4 629.012C1187.88 624.893 1184.23 619.809 1181.45 613.76C1178.68 607.711 1177.2 601.627 1177.02 595.509C1176.92 589.356 1178.01 583.451 1180.29 577.795C1182.58 572.139 1185.96 567.015 1190.42 562.423C1194.88 557.83 1200.29 554.071 1206.65 551.144C1213.08 548.182 1219.46 546.516 1225.76 546.147C1232.15 545.743 1238.19 546.53 1243.89 548.51C1249.67 550.454 1254.85 553.468 1259.45 557.551C1264.01 561.557 1267.7 566.624 1270.51 572.75C1273.29 578.799 1274.75 584.939 1274.88 591.17C1274.99 597.324 1273.89 603.229 1271.61 608.885C1269.36 614.427 1266.01 619.495 1261.54 624.087C1257.16 628.644 1251.79 632.385 1245.43 635.312ZM1237.94 619.312C1241.59 617.635 1244.64 615.48 1247.09 612.847C1249.62 610.178 1251.51 607.146 1252.77 603.748C1254.03 600.351 1254.55 596.777 1254.33 593.026C1254.19 589.24 1253.22 585.408 1251.44 581.53C1249.66 577.653 1247.39 574.427 1244.61 571.855C1241.91 569.246 1238.86 567.314 1235.47 566.058C1232.15 564.766 1228.66 564.214 1224.99 564.401C1221.32 564.588 1217.66 565.52 1214.02 567.197C1210.38 568.875 1207.29 571.048 1204.76 573.716C1202.31 576.349 1200.45 579.364 1199.19 582.761C1197.94 586.159 1197.38 589.751 1197.52 593.537C1197.74 597.288 1198.74 601.102 1200.52 604.979C1202.26 608.78 1204.5 612.023 1207.24 614.709C1210.02 617.282 1213.06 619.214 1216.38 620.505C1219.77 621.761 1223.3 622.296 1226.97 622.109C1230.64 621.922 1234.3 620.99 1237.94 619.312Z" fill="white"/>
<path d="M1289.79 615.858L1280.35 526.757L1318.93 522.78C1326.91 521.957 1333.92 522.564 1339.97 524.599C1346.02 526.55 1350.86 529.782 1354.52 534.295C1358.17 538.808 1360.35 544.417 1361.06 551.121C1361.76 557.74 1360.8 563.629 1358.17 568.79C1355.54 573.866 1351.47 577.974 1345.96 581.115C1340.46 584.256 1333.72 586.237 1325.74 587.06L1298.62 589.856L1306.83 579.873L1310.42 613.732L1289.79 615.858ZM1346.45 610.017L1320.74 579.983L1342.77 577.712L1368.73 607.72L1346.45 610.017ZM1307.07 582.164L1296.88 573.436L1322.86 570.758C1329.22 570.102 1333.83 568.254 1336.68 565.215C1339.53 562.091 1340.69 558.11 1340.18 553.273C1339.66 548.352 1337.69 544.695 1334.26 542.303C1330.83 539.911 1325.93 539.044 1319.56 539.7L1293.59 542.377L1301.72 531.631L1307.07 582.164Z" fill="white"/>
<path d="M1368.36 606.218L1389.98 519.266L1406.6 523.501L1428.3 594.284L1419.5 592.04L1471.1 539.937L1487.59 544.141L1466.22 631.156L1447.37 626.352L1461.67 568.311L1465.14 569.196L1423.98 610.617L1414.92 608.31L1397.42 551.938L1401.63 553.013L1387.21 611.023L1368.36 606.218Z" fill="white"/>
<path d="M1490.32 652.727C1484.3 648.836 1479.04 644.316 1474.53 639.167C1470.06 633.946 1466.97 628.952 1465.26 624.184L1479.56 614.838C1481.32 619.225 1483.9 623.586 1487.31 627.923C1490.84 632.233 1494.86 635.848 1499.37 638.766C1502.81 640.989 1505.78 642.448 1508.27 643.144C1510.88 643.814 1513.08 643.861 1514.86 643.287C1516.64 642.712 1518.04 641.633 1519.05 640.05C1520.33 638.035 1520.55 635.943 1519.71 633.773C1518.91 631.531 1517.46 629.216 1515.33 626.829C1513.26 624.37 1510.85 621.798 1508.11 619.113C1505.49 616.402 1502.92 613.523 1500.41 610.478C1497.97 607.479 1495.96 604.355 1494.39 601.104C1492.82 597.854 1492.04 594.401 1492.04 590.745C1492.12 587.136 1493.44 583.317 1496.01 579.288C1498.76 574.97 1502.41 571.79 1506.95 569.747C1511.61 567.677 1516.93 567.105 1522.92 568.029C1529.03 568.927 1535.63 571.669 1542.72 576.254C1547.45 579.311 1551.75 582.897 1555.6 587.013C1559.5 591.056 1562.49 595.328 1564.58 599.828L1550.74 609.629C1548.51 605.345 1545.94 601.601 1543.03 598.396C1540.16 595.119 1537.04 592.392 1533.67 590.215C1530.3 588.038 1527.29 586.651 1524.64 586.053C1521.98 585.455 1519.77 585.503 1518.02 586.196C1516.31 586.817 1514.92 587.955 1513.87 589.61C1512.63 591.552 1512.41 593.645 1513.2 595.887C1514.05 598.057 1515.53 600.336 1517.65 602.722C1519.77 605.109 1522.14 607.658 1524.77 610.369C1527.46 613.127 1530.05 615.969 1532.54 618.896C1535.09 621.869 1537.16 624.981 1538.73 628.232C1540.3 631.482 1541.05 634.912 1540.97 638.521C1540.97 642.176 1539.71 645.983 1537.18 649.94C1534.48 654.185 1530.82 657.307 1526.2 659.304C1521.59 661.301 1516.23 661.851 1510.12 660.952C1504.09 660.1 1497.49 657.358 1490.32 652.727Z" fill="white"/>
<path d="M1907.11 628.549L1908.93 649.205L1819.67 656.921L1817.84 636.266L1907.11 628.549ZM1814.25 595.72L1812.43 575.065L1901.69 567.348L1903.52 588.004L1814.25 595.72ZM1854.58 634.632L1850.72 591.026L1868.19 589.516L1872.05 633.122L1854.58 634.632Z" fill="white"/>
<path d="M1809.89 691.955C1811.42 684.954 1813.81 678.449 1817.04 672.441C1820.37 666.453 1823.95 661.836 1827.81 658.59L1841.54 668.886C1838.05 672.04 1834.88 675.962 1832.02 680.655C1829.22 685.449 1827.25 690.472 1826.1 695.724C1825.22 699.725 1824.89 703.018 1825.11 705.604C1825.4 708.291 1826.12 710.377 1827.28 711.862C1828.44 713.346 1829.93 714.294 1831.77 714.705C1834.1 715.228 1836.13 714.723 1837.86 713.188C1839.68 711.671 1841.33 709.506 1842.82 706.692C1844.4 703.897 1845.96 700.749 1847.51 697.25C1849.13 693.852 1850.92 690.451 1852.89 687.044C1854.84 683.722 1857.06 680.765 1859.55 678.176C1862.04 675.586 1865 673.668 1868.41 672.424C1871.81 671.263 1875.84 671.205 1880.51 672.251C1885.5 673.372 1889.75 675.724 1893.24 679.307C1896.8 682.992 1899.2 687.815 1900.43 693.775C1901.72 699.837 1901.46 706.994 1899.65 715.246C1898.45 720.748 1896.6 726.016 1894.09 731.052C1891.68 736.107 1888.73 740.387 1885.25 743.892L1871.26 734.193C1874.49 730.632 1877.09 726.93 1879.07 723.089C1881.13 719.266 1882.59 715.396 1883.44 711.478C1884.3 707.56 1884.55 704.248 1884.18 701.542C1883.81 698.836 1883 696.773 1881.74 695.353C1880.56 693.951 1879.01 693.036 1877.1 692.606C1874.85 692.102 1872.81 692.608 1871 694.124C1869.26 695.659 1867.65 697.833 1866.16 700.647C1864.67 703.461 1863.12 706.567 1861.5 709.965C1859.86 713.445 1858.11 716.857 1856.24 720.198C1854.36 723.623 1852.17 726.63 1849.68 729.22C1847.19 731.81 1844.25 733.685 1840.85 734.847C1837.43 736.091 1833.43 736.2 1828.85 735.172C1823.94 734.07 1819.75 731.686 1816.27 728.019C1812.79 724.353 1810.41 719.489 1809.11 713.427C1807.8 707.448 1808.06 700.291 1809.89 691.955Z" fill="white"/>
<path d="M1839.42 775.457L1818.99 813.449L1804.83 805.721L1825.26 767.73L1839.42 775.457ZM1806.33 759.147L1783.24 802.1L1768.63 794.127L1801.49 733.024L1880.13 775.954L1848.07 835.591L1833.46 827.618L1855.77 786.132L1806.33 759.147Z" fill="white"/>
<path d="M1754.65 877.208L1720.54 903.409L1710.47 890.168L1744.57 863.966L1754.65 877.208ZM1723.59 838.928L1740.03 826.295L1794.29 897.596L1740.6 938.848L1730.52 925.606L1767.77 896.987L1723.59 838.928Z" fill="white"/>
<path d="M1642.94 881.521C1649.62 879.145 1656.19 878.027 1662.67 878.166C1669.07 878.334 1675.06 879.644 1680.63 882.096C1686.13 884.577 1690.99 888.057 1695.2 892.535C1699.34 897.041 1702.52 902.431 1704.74 908.704C1706.97 914.977 1707.89 921.168 1707.53 927.277C1707.08 933.415 1705.46 939.199 1702.68 944.628C1699.9 950.057 1696.08 954.859 1691.22 959.034C1686.36 963.209 1680.64 966.47 1674.05 968.817C1667.38 971.193 1660.88 972.283 1654.56 972.086C1648.17 971.918 1642.22 970.594 1636.72 968.113C1631.14 965.661 1626.25 962.195 1622.03 957.718C1617.85 953.32 1614.63 947.945 1612.37 941.591C1610.15 935.318 1609.24 929.073 1609.66 922.854C1610.11 916.716 1611.73 910.933 1614.51 905.504C1617.24 900.184 1621.04 895.436 1625.89 891.261C1630.67 887.115 1636.35 883.868 1642.94 881.521ZM1648.97 898.125C1645.19 899.471 1641.96 901.345 1639.29 903.748C1636.53 906.18 1634.37 909.031 1632.81 912.303C1631.26 915.574 1630.42 919.087 1630.3 922.843C1630.11 926.626 1630.72 930.529 1632.15 934.55C1633.58 938.571 1635.56 941.987 1638.09 944.798C1640.55 947.637 1643.41 949.834 1646.68 951.388C1649.87 952.971 1653.3 953.833 1656.97 953.975C1660.64 954.117 1664.36 953.515 1668.14 952.17C1671.92 950.824 1675.19 948.936 1677.95 946.504C1680.63 944.101 1682.74 941.264 1684.3 937.993C1685.86 934.721 1686.73 931.194 1686.93 927.41C1687.05 923.654 1686.39 919.766 1684.96 915.745C1683.57 911.804 1681.63 908.374 1679.14 905.454C1676.61 902.643 1673.74 900.447 1670.56 898.864C1667.29 897.31 1663.82 896.462 1660.15 896.32C1656.47 896.178 1652.75 896.78 1648.97 898.125Z" fill="white"/>
<path d="M1597.02 896.933L1598.46 986.522L1559.68 987.036C1551.66 987.142 1544.73 985.911 1538.89 983.343C1533.04 980.86 1528.5 977.208 1525.27 972.386C1522.03 967.565 1520.36 961.784 1520.25 955.043C1520.15 948.388 1521.63 942.608 1524.71 937.703C1527.79 932.883 1532.21 929.155 1537.97 926.518C1543.73 923.882 1550.62 922.51 1558.64 922.404L1585.91 922.043L1576.84 931.252L1576.29 897.208L1597.02 896.933ZM1540.07 897.688L1562.99 929.899L1540.85 930.192L1517.67 897.985L1540.07 897.688ZM1576.8 928.948L1586.17 938.553L1560.06 938.899C1553.66 938.983 1548.91 940.412 1545.79 943.184C1542.68 946.041 1541.16 949.902 1541.24 954.765C1541.32 959.714 1542.96 963.532 1546.16 966.221C1549.36 968.909 1554.16 970.211 1560.56 970.126L1586.67 969.78L1577.62 979.757L1576.8 928.948Z" fill="white"/>
<path d="M1517.91 899.514L1488.61 984.187L1472.43 978.484L1457.14 906.045L1465.71 909.067L1409.66 956.351L1393.6 950.69L1422.67 865.932L1441.01 872.401L1421.59 928.933L1418.21 927.741L1462.9 890.163L1471.72 893.27L1484.12 950.981L1480.01 949.534L1499.56 893.045L1517.91 899.514Z" fill="white"/>
<path d="M1400.59 842.294C1406.24 846.707 1411.08 851.679 1415.11 857.211C1419.09 862.81 1421.72 868.06 1423 872.962L1407.92 880.992C1406.56 876.466 1404.38 871.891 1401.37 867.268C1398.24 862.659 1394.56 858.7 1390.33 855.39C1387.1 852.869 1384.27 851.15 1381.85 850.235C1379.32 849.334 1377.13 849.091 1375.31 849.504C1373.48 849.917 1371.99 850.867 1370.84 852.353C1369.38 854.245 1368.98 856.309 1369.62 858.546C1370.22 860.85 1371.46 863.286 1373.36 865.853C1375.21 868.487 1377.38 871.265 1379.87 874.184C1382.24 877.119 1384.54 880.215 1386.77 883.472C1388.93 886.677 1390.65 889.969 1391.92 893.346C1393.2 896.724 1393.67 900.233 1393.34 903.874C1392.94 907.462 1391.28 911.148 1388.36 914.931C1385.24 918.985 1381.32 921.827 1376.61 923.457C1371.79 925.101 1366.44 925.196 1360.55 923.74C1354.55 922.3 1348.22 918.979 1341.56 913.778C1337.13 910.311 1333.17 906.356 1329.7 901.913C1326.18 897.537 1323.58 893.015 1321.9 888.346L1336.56 879.82C1338.4 884.286 1340.62 888.246 1343.24 891.698C1345.81 895.218 1348.67 898.213 1351.83 900.682C1354.99 903.151 1357.87 904.802 1360.46 905.635C1363.05 906.468 1365.25 906.618 1367.06 906.084C1368.82 905.619 1370.3 904.609 1371.5 903.055C1372.91 901.231 1373.31 899.166 1372.72 896.862C1372.07 894.625 1370.8 892.223 1368.9 889.656C1367 887.09 1364.87 884.339 1362.5 881.404C1360.06 878.417 1357.73 875.355 1355.52 872.217C1353.24 869.027 1351.46 865.744 1350.19 862.366C1348.91 858.988 1348.47 855.505 1348.87 851.917C1349.2 848.277 1350.8 844.598 1353.67 840.882C1356.74 836.896 1360.67 834.114 1365.44 832.537C1370.21 830.96 1375.6 830.892 1381.6 832.332C1387.54 833.72 1393.87 837.04 1400.59 842.294Z" fill="white"/>
</g>
<defs>
<linearGradient id="paint0_linear_52_26" x1="960" y1="0" x2="960" y2="1098.5" gradientUnits="userSpaceOnUse">
<stop stop-color="#0029FF" stop-opacity="0.49"/>
<stop offset="0.192608" stop-color="#0029FF" stop-opacity="0.36"/>
<stop offset="0.376942" stop-color="#0029FF" stop-opacity="0.23"/>
<stop offset="0.548564" stop-color="#0029FF" stop-opacity="0.18"/>
<stop offset="0.739256" stop-color="#0029FF" stop-opacity="0.11"/>
<stop offset="1" stop-color="#0029FF" stop-opacity="0.04"/>
</linearGradient>
<clipPath id="clip0_52_26">
<rect width="1920" height="1080" fill="white"/>
</clipPath>
</defs>
</svg>
