<svg width="1407" height="229" viewBox="0 0 1407 229" fill="none" xmlns="http://www.w3.org/2000/svg">
<path d="M0.4 -1.52588e-05H40.08V89.28H156.24V-1.52588e-05H195.92V224H156.24V126.4H40.08V224H0.4V-1.52588e-05ZM341.833 99.52L323.593 121.28C312.073 108.16 300.873 104 286.793 104C273.353 104 265.352 109.44 265.352 118.72C265.352 130.24 279.113 132.8 294.473 136.32C316.873 141.12 343.433 147.52 343.433 180.8C343.433 211.84 320.073 228.48 285.193 228.48C262.473 228.48 243.913 221.44 225.033 202.88L242.633 179.52C260.233 195.52 271.113 200 285.193 200C299.913 200 310.793 192.32 310.793 181.76C310.793 171.84 298.633 168.64 284.553 165.44C261.833 160.96 233.033 155.2 233.033 119.04C233.033 92.48 252.553 75.2 286.793 75.2C308.873 75.2 326.473 82.24 341.833 99.52ZM440.055 75.2C484.855 75.2 511.415 103.04 511.415 150.4C511.415 154.56 511.095 159.36 510.455 164.16H399.735C404.535 185.28 422.135 198.4 443.895 198.4C462.135 198.4 478.135 189.76 489.655 177.28L506.615 198.4C490.935 217.6 468.215 228.48 441.015 228.48C396.215 228.48 364.535 194.56 364.535 151.68C364.535 108.8 396.855 75.2 440.055 75.2ZM440.055 104.32C418.615 104.32 402.615 117.76 398.775 138.56H478.775C475.255 117.76 460.855 104.32 440.055 104.32ZM626.025 224V-1.52588e-05H744.745V36.16H665.705V94.4H738.025V129.6H665.705V224H626.025ZM830.993 228.48C788.753 228.48 755.473 193.6 755.473 151.68C755.473 109.44 788.753 75.2 830.993 75.2C873.233 75.2 905.873 109.44 905.873 151.68C905.873 193.6 873.233 228.48 830.993 228.48ZM871.313 151.68C871.313 127.68 854.673 107.84 830.993 107.84C807.313 107.84 790.033 127.68 790.033 151.68C790.033 175.36 807.313 195.52 830.993 195.52C854.673 195.52 871.313 175.36 871.313 151.68ZM936.888 79.36H969.848V96.64C975.928 84.16 990.328 75.52 1006.33 75.2C1011.45 75.2 1016.89 75.84 1022.97 78.4L1018.81 113.6C1013.05 111.68 1008.25 111.04 1003.45 111.04C988.088 111.04 977.848 120 971.768 136V224H936.888V79.36ZM1044.68 79.36H1077.64V100.16C1088.52 86.72 1108.04 75.2 1126.28 75.2C1147.72 75.2 1161.8 87.04 1165.32 104.64C1176.84 88.96 1195.4 75.2 1217.8 75.2C1250.76 75.2 1263.88 99.2 1263.88 129.6V224H1229V139.52C1229 120.96 1221.32 111.68 1207.56 111.68C1192.2 111.68 1180.36 124.16 1171.72 139.52V224H1136.84V141.44C1136.84 122.88 1128.84 111.68 1115.72 111.68C1100.36 111.68 1087.56 124.16 1079.56 139.52V224H1044.68V79.36ZM1404.65 99.52L1386.41 121.28C1374.89 108.16 1363.69 104 1349.61 104C1336.17 104 1328.16 109.44 1328.16 118.72C1328.16 130.24 1341.93 132.8 1357.29 136.32C1379.69 141.12 1406.25 147.52 1406.25 180.8C1406.25 211.84 1382.89 228.48 1348.01 228.48C1325.29 228.48 1306.73 221.44 1287.85 202.88L1305.45 179.52C1323.05 195.52 1333.93 200 1348.01 200C1362.73 200 1373.61 192.32 1373.61 181.76C1373.61 171.84 1361.45 168.64 1347.37 165.44C1324.65 160.96 1295.85 155.2 1295.85 119.04C1295.85 92.48 1315.37 75.2 1349.61 75.2C1371.69 75.2 1389.29 82.24 1404.65 99.52Z" fill="black"/>
</svg>
